<?xml version="1.0" encoding="UTF-8" standalone="no"?>
<!-- Created with Inkscape (http://www.inkscape.org/) -->

<svg
   xmlns:dc="http://purl.org/dc/elements/1.1/"
   xmlns:cc="http://creativecommons.org/ns#"
   xmlns:rdf="http://www.w3.org/1999/02/22-rdf-syntax-ns#"
   xmlns:svg="http://www.w3.org/2000/svg"
   xmlns="http://www.w3.org/2000/svg"
   xmlns:sodipodi="http://sodipodi.sourceforge.net/DTD/sodipodi-0.dtd"
   xmlns:inkscape="http://www.inkscape.org/namespaces/inkscape"
   width="82.490753mm"
   height="122.97068mm"
   viewBox="0 0 82.490753 122.97068"
   version="1.1"
   id="svg8"
   inkscape:version="0.92.3 (2405546, 2018-03-11)"
   sodipodi:docname="drawing.svg">
  <defs
     id="defs2" />
  <sodipodi:namedview
     id="base"
     pagecolor="#ffffff"
     bordercolor="#666666"
     borderopacity="1.0"
     inkscape:pageopacity="0.0"
     inkscape:pageshadow="2"
     inkscape:zoom="0.56543561"
     inkscape:cx="-71.281682"
     inkscape:cy="66.351062"
     inkscape:document-units="mm"
     inkscape:current-layer="layer1"
     showgrid="false"
     inkscape:snap-global="false"
     fit-margin-top="0"
     fit-margin-left="0"
     fit-margin-right="0"
     fit-margin-bottom="0"
     inkscape:window-width="1920"
     inkscape:window-height="993"
     inkscape:window-x="0"
     inkscape:window-y="30"
     inkscape:window-maximized="1" />
  <metadata
     id="metadata5">
    <rdf:RDF>
      <cc:Work
         rdf:about="">
        <dc:format>image/svg+xml</dc:format>
        <dc:type
           rdf:resource="http://purl.org/dc/dcmitype/StillImage" />
        <dc:title></dc:title>
      </cc:Work>
    </rdf:RDF>
  </metadata>
  <g
     inkscape:label="Layer 1"
     inkscape:groupmode="layer"
     id="layer1"
     transform="translate(-21.627592,-45.759302)">
    <path
       d="m 21.989874,62.96314 c -0.606777,-0.807861 0.409223,-1.312333 1.061862,-1.439333 1.36525,-0.268111 3.915833,-0.05997 5.274027,0.271639 0,0 -0.352777,2.116667 -0.352777,2.116667 -2.536473,-0.617362 -5.274028,-0.01058 -5.983112,-0.948973 z m 26.797,4.829528 c 0,0 -0.352777,1.763889 -0.352777,1.763889 0,0 -8.466667,-3.372556 -8.466667,-3.372556 0,0 -8.773583,-2.056694 -8.773583,-2.056694 -1.273528,-0.47625 -1.030111,-1.255889 -0.751417,-2.331861 6.409972,1.615722 12.576528,2.282472 18.344444,5.997222 z m 8.822973,6.1595 c 0.296333,0.479778 0.264583,0.740833 0.34925,1.248833 2.2225,0.359834 2.455333,1.259417 3.912305,2.822223 2.289528,2.455333 4.526139,4.967111 6.406445,7.761111 1.220611,1.80975 2.455333,3.196166 0.617361,4.938889 -3.280834,-5.471584 -7.581195,-11.853334 -12.7,-15.744473 0,0 -3.880556,-2.917472 -3.880556,-2.917472 -0.599722,-0.402166 -1.626305,-0.878416 -1.823861,-1.583972 -0.254,-0.536222 -0.05292,-1.100667 0,-1.626306 1.672167,0.719667 6.251222,3.700639 7.119056,5.101167 z m 16.686389,23.121056 c 2.024944,4.420306 3.697111,9.076976 5.030611,13.758336 0.388055,1.35466 1.545166,5.03061 0.843139,6.23358 -0.338667,0.58561 -0.85725,0.83256 -1.397,1.17475 -0.677334,-4.80483 -3.862917,-15.01422 -5.919612,-19.402777 -0.500944,-1.068917 -2.677583,-5.49275 -2.652888,-6.35 0.02469,-0.804334 0.395111,-1.153584 0.811388,-1.763889 1.425223,1.792111 2.328334,4.265083 3.284362,6.35 z m 7.944555,41.275006 c 0,0 -1.848555,-12.70001 -1.848555,-12.70001 0,0 -0.550334,-5.79966 -0.550334,-5.79966 0,0 1.400528,-0.90311 1.400528,-0.90311 1.090083,3.77119 2.963333,16.40417 3.178528,20.46111 0.08467,1.37583 0.769055,4.70606 0,5.81731 -0.366889,0.51152 -0.881945,0.65263 -1.414639,0.88547 0,0 -0.765528,-7.76111 -0.765528,-7.76111 z m 3.234972,18.69722 c 0,0 0.338667,3.52778 0.338667,3.52778 0,0 0,4.58611 0,4.58611 0.01411,0.59972 0.08819,4.3568 -1.506361,3.16089 -0.92075,-0.69498 -0.582083,-5.10823 -0.596195,-6.33589 0,0 -0.352777,-4.58611 -0.352777,-4.58611 0,0 0,-5.64445 0,-5.64445 -0.03175,-2.76578 -0.913695,-3.51366 1.763889,-4.23333 0,0 0.352777,9.525 0.352777,9.525 z"
       id="Selection"
       inkscape:connector-curvature="0"
       style="fill:#00fe00;fill-opacity:1;stroke:#000300;stroke-width:0.35277778;stroke-opacity:1" />
    <path
       d="m 44.671679,47.855658 c 1.848555,-1.718028 5.700888,-3.411361 6.332361,0.289278 2.568222,0.843139 2.515305,4.402667 2.465916,6.702778 -0.102305,4.445 -1.36525,6.946194 -2.702277,10.936111 -2.293056,6.861528 -5.295195,15.6845 -3.996973,22.930555 2.017889,-1.224139 2.755195,-2.564694 4.388556,-4.233333 1.453444,-1.488722 3.450167,-3.037417 5.136444,-4.275667 1.506361,-1.100666 3.312584,-2.853972 4.586111,-0.663222 -2.811638,1.837972 -4.783666,3.030361 -7.404805,5.263445 -1.49225,1.273527 -2.307167,2.882194 -4.236861,3.203222 -0.324556,1.986139 -0.931334,2.328333 -2.822222,2.822222 -1.499306,-2.557639 -2.109612,-1.075972 -2.116667,-5.644444 -0.0071,-6.367639 2.116667,-13.052778 4.116917,-19.05 1.372305,-4.123973 3.100916,-7.838723 2.924527,-12.347223 0,0 -0.3175,-2.469444 -0.3175,-2.469444 -0.610305,-3.157361 -2.148416,-4.1275 -4.960055,-2.187222 -2.017889,1.393472 -4.007556,4.293305 -5.23875,6.420555 0,0 -3.580695,7.055556 -3.580695,7.055556 0,0 -1.763889,-0.352778 -1.763889,-0.352778 0.850195,-4.533194 5.831417,-11.27125 9.189862,-14.400389 z M 26.634151,65.431047 c 0.395111,-2.314222 0.306916,-4.960056 3.203222,-4.586111 -1.312333,4.953 -2.021417,10.057694 -2.208389,15.169444 -0.05997,1.686278 0.0035,2.7305 0.797278,4.233334 0,0 2.367139,-4.938889 2.367139,-4.938889 0,0 3.630083,-11.288889 3.630083,-11.288889 0,0 2.116667,0.352778 2.116667,0.352778 -0.754945,3.302 -3.093861,10.452805 -4.624917,13.405555 -0.963083,1.855611 -2.487083,3.922889 -4.547305,4.586111 0,0 0,-1.411111 0,-1.411111 0,0 -1.411112,0 -1.411112,0 -0.966611,-5.390444 -0.229305,-10.184694 0.677334,-15.522222 z m 51.181,5.408083 c 0.709083,-0.130527 1.774472,-0.119944 2.451805,0 1.735667,0.606778 3.485445,2.57175 2.966861,4.469695 -0.694972,2.547055 -5.584472,6.727472 -7.475361,8.819444 -4.582583,5.062361 -13.839472,15.201195 -16.993305,20.813891 0,0 8.466666,-1.66512 8.466666,-1.66512 0,0 7.055556,-0.80433 7.055556,-0.80433 0,0 0.352778,2.11667 0.352778,2.11667 0,0 -9.877778,1.21003 -9.877778,1.21003 0,0 -7.761111,1.96497 -7.761111,1.96497 0,0 -1.411111,-1.05834 -1.411111,-1.05834 1.210028,-3.16441 3.7465,-6.17713 5.856111,-8.819437 0,0 12.195528,-14.111112 12.195528,-14.111112 2.935111,-3.245555 7.433027,-5.771444 7.701139,-10.583333 0,0 -2.822223,-0.324555 -2.822223,-0.324555 -3.118555,0 -8.389055,2.035527 -11.288889,3.294944 -3.443111,1.499306 -4.141611,3.019778 -5.997222,0.910167 4.642556,-2.674056 11.158361,-5.965473 16.580556,-6.233584 z m 11.641666,31.92991 c 0,0 5.605639,1.10067 5.605639,1.10067 0,0 2.861028,2.48356 2.861028,2.48356 0,0 -2.529417,2.25072 -2.529417,2.25072 0,0 -12.992805,8.128 -12.992805,8.128 0,0 -17.286111,11.4935 -17.286111,11.4935 0,0 11.641666,1.38289 11.641666,1.38289 2.423584,0.39864 3.901723,0.0706 4.233334,2.85045 0,0 -14.111111,-1.96851 -14.111111,-1.96851 -0.973667,-0.127 -4.025195,0.0494 -4.487334,-0.70203 -0.532694,-0.87136 0.416278,-1.95438 0.998361,-2.5153 1.118306,-1.08303 4.494389,-3.2385 5.958417,-4.22275 0,0 17.638889,-11.55347 17.638889,-11.55347 2.321278,-1.44639 5.983111,-4.06753 8.466667,-4.79073 0,0 0,-0.70555 0,-0.70555 -8.392584,-1.68628 -10.357556,-1.41111 -18.697223,-1.41111 0,0 -0.352777,-2.11667 -0.352777,-2.11667 0,0 13.052777,0.29633 13.052777,0.29633 z m -31.044444,2.17312 c 0,0 0.352778,0.35277 0.352778,0.35277 0,0 0,-0.35277 0,-0.35277 0,0 -0.352778,0 -0.352778,0 z m 39.158333,29.13239 c 1.940278,0.55386 4.201584,0.70908 4.586114,2.97039 0,0 1.05833,0.35278 1.05833,0.35278 -4.011083,2.81869 -8.918221,4.65666 -13.405555,6.65339 0,0 -13.052778,5.93725 -13.052778,5.93725 0,0 -8.819444,3.98991 -8.819444,3.98991 0,0 10.936111,3.175 10.936111,3.175 3.637139,1.18886 4.134556,0.76553 4.233333,3.52778 0,0 -14.111111,-4.191 -14.111111,-4.191 -0.977194,-0.25753 -4.328583,-0.89606 -4.600222,-1.89794 -0.264583,-0.99131 0.719667,-1.57692 1.439333,-1.96145 0,0 6.688667,-3.03389 6.688667,-3.03389 0,0 27.516666,-12.55183 27.516666,-12.55183 0,0 -11.641666,-3.03389 -11.641666,-3.03389 -4.864805,-0.98072 -4.878917,-0.5962 -5.644444,-3.31612 0,0 14.816666,3.37962 14.816666,3.37962 z m 2.116667,29.92967 c 2.324807,0.87841 4.011087,1.00189 4.233337,3.73239 0,0 -14.463893,-4.93889 -14.463893,-4.93889 -3.947583,-1.31586 -4.155722,-1.10067 -4.233333,-3.52778 0,0 14.463889,4.73428 14.463889,4.73428 z"
       id="Selection #1"
       inkscape:connector-curvature="0"
       style="fill:#ff0000;fill-opacity:1;stroke:#000000;stroke-width:0.35277778;stroke-opacity:1" />
  </g>
</svg>
